# xmcd CD database file
#
# Track frame offsets:
#	150
#	13387
#	30958
#	45366
#	63354
#	83011
#	98186
#	116280
#	128117
#	144141
#	160813
#	179171
#
# Disc length: 2537 seconds
#
# Revision: 1
# Processed by: cddbd v1.5.2PL0 Copyright (c) Steve Scherf et al.
# Submitted via: CDex 1.51
#
DISCID=9009e70c
DTITLE=Billy Goodman - Blues
DYEAR=2002
DGENRE=Blues
TTITLE0=Church bell blues
TTITLE1=kind hearted woman
TTITLE2=jitterbug swing
TTITLE3=pallet on the floor
TTITLE4=when you got a good friend
TTITLE5=easy rider blues
TTITLE6=hesitation blues
TTITLE7=going home
TTITLE8=stones in my passway
TTITLE9=keep your lamp trimmed and burning
TTITLE10=hellhound on my trail
TTITLE11=weststadt bells
EXTD=YEAR: 2002
EXTT0=
EXTT1=
EXTT2=
EXTT3=
EXTT4=
EXTT5=
EXTT6=
EXTT7=
EXTT8=
EXTT9=
EXTT10=
EXTT11=
PLAYORDER=
